<svg xmlns="http://www.w3.org/2000/svg" width="533.333" height="533.333" viewBox="0 0 400 400" preserveAspectRatio="xMidYMid meet" xmlns:v="https://vecta.io/nano"><path d="M187 1.1C115.7 5.4 52.1 48.3 20.5 113.5 7 141.2.9 168 .9 199.5c-.1 32.6 5.8 58.4 19.6 87 19.9 41.2 51.7 73 93 93 27.9 13.5 54.9 19.7 86.5 19.7s58.6-6.2 86.5-19.7c41.3-20 73.1-51.8 93-93 13.7-28.4 19.6-54.3 19.6-86.6 0-23.2-2.5-39.5-9.3-60.9-16.4-51.3-53.7-94.4-102.3-118.1C255.7 5.4 222.9-1 187 1.1zm-71.5 102.8c6.6 3.3 17.4 9.4 24 13.6s17.9 10.4 25 14c31.8 15.7 50.7 33.2 56.6 52.6 2.9 9.6 2.3 21.7-1.5 30.9-7.1 17.3-26.9 39-56.9 62.3-5.5 4.3-12.6 10.1-15.6 12.8-13.7 12.2-33.1 16.2-47.9 9.9-12.8-5.5-23.4-24.3-23.3-41.5 0-12.1 11.6-29.1 31.5-46.3 5.3-4.6 9.6-8.5 9.6-8.7s-11.4-7.5-25.4-16.4c-23.3-14.8-25.7-16.6-29.5-22-8.1-11.6-10.4-21-8.2-33.7 1.7-9.3 4.1-14.4 9.7-20.4 5.3-5.7 13.8-10.2 22.4-11.9l7.5-1.5c4.8-1.1 10.6.6 22 6.3zm210.9 143c7.2 2.9 14.1 9 15.7 13.9 1.4 4.3 1.7 15.1.6 20.5-1 4.8-6.7 11.2-12.6 14.2-7 3.5-13.8 4.5-30 4.5-8.1 0-21.9.7-30.7 1.6-25.7 2.6-32.6 1.2-39-7.5-3.8-5.3-7.4-15.4-7.4-20.9 0-4.6 3.8-12.8 7.6-16.4 6-5.5 17.5-9.8 32-11.7 3.8-.5 18.4-.8 32.4-.7 24.2.2 25.8.3 31.4 2.5z" fill="#d97706"/></svg>